<svg xmlns="http://www.w3.org/2000/svg" xmlns:svg="http://www.w3.org/2000/svg" width="80.264465" height="34.007122" viewBox="0 0 80.264465 34.007122" fill="none" id="svg262"><g clip-path="url(#clip0_1170_479)" id="g255" transform="translate(-67.861298,-52.617878)"><mask id="mask0_1170_479" maskUnits="userSpaceOnUse" x="0" y="0" width="210" height="125"><path d="M 0,4.66826e-6 H 210 V 125 H 0 Z" fill="#ffffff" id="path143"></path></mask><g mask="url(#mask0_1170_479)" id="g148"><path d="m 111.86,66.244 2.695,5.7306 h -5.391 z" fill="#ffffff" id="path146"></path></g><mask id="mask1_1170_479" maskUnits="userSpaceOnUse" x="0" y="0" width="210" height="125"><path d="M 0,4.66826e-6 H 210 V 125 H 0 Z" fill="#ffffff" id="path150"></path></mask><g mask="url(#mask1_1170_479)" id="g155"><path d="m 92.02,57.7607 -3.1159,-5.1088 h 5.6845 z" fill="#ffffff" id="path153"></path></g><mask id="mask2_1170_479" maskUnits="userSpaceOnUse" x="0" y="0" width="210" height="125"><path d="M 0,4.66826e-6 H 210 V 125 H 0 Z" fill="#ffffff" id="path157"></path></mask><g mask="url(#mask2_1170_479)" id="g162"><path d="m 131.434,73.4894 c -1.225,-0.0159 -2.277,-1.0595 -2.288,-2.269 -0.011,-1.2588 1.07,-2.3221 2.347,-2.3083 1.243,0.0138 2.256,1.026 2.268,2.2663 0.012,1.2764 -1.047,2.3274 -2.327,2.311 z m 16.682,-12.939 c -0.143,-1.2459 -0.283,-2.4921 -0.422,-3.738 -0.054,-0.4801 -0.358,-0.7053 -0.807,-0.7829 -1.005,-0.1734 -1.774,-0.56 -2.24,-1.5963 -0.439,-0.9769 -1.454,-1.3849 -2.479,-1.6251 -0.702,-0.1641 -1.418,-0.1911 -2.139,-0.1902 -2.714,0.0026 -5.428,0.0035 -8.151,0.0035 l -0.452,1.4285 c 2.786,2e-4 5.571,-9e-4 8.356,0.0014 0.579,9e-4 1.164,0.0168 1.735,0.0991 1.572,0.2261 2.303,0.9678 2.438,2.5265 0.232,2.6655 0.422,5.3346 0.641,8.1462 -1.426,0 -2.753,-0.0232 -4.079,0.0109 -0.522,0.0138 -0.888,-0.1382 -1.248,-0.5168 -1.415,-1.4879 -2.857,-2.9499 -4.302,-4.4098 -0.447,-0.4512 -0.89,-0.8355 -1.644,-0.8293 -1.163,0.0103 -2.327,0.0094 -3.49,0.0132 l -0.449,1.4226 c 1.126,-0.0026 2.252,-0.0029 3.379,-0.0091 0.557,-0.0035 0.952,0.1467 1.337,0.5506 1.454,1.5273 2.96,3.0045 4.407,4.5382 0.46,0.488 0.934,0.6915 1.606,0.6718 1.52,-0.0441 3.041,-0.0136 4.62,-0.0136 v 4.2019 H 135.2 c -0.598,-1.835 -1.778,-2.9639 -3.73,-2.9724 -2.002,-0.0091 -3.171,1.178 -3.772,3.028 h -4.966 l -0.466,1.4717 h 5.371 c 0.252,0.1364 0.241,0.4439 0.353,0.6782 0.698,1.4508 1.845,2.2669 3.468,2.2695 1.624,0.0029 2.822,-0.7926 3.437,-2.2766 0.243,-0.5853 0.528,-0.7305 1.117,-0.7258 3.007,0.0261 6.014,-0.0106 9.021,0.0247 0.889,0.0103 1.185,-0.3105 1.205,-1.1889 0.095,-4.0449 -0.394,-8.0536 -0.674,-12.0753 -0.033,-0.4698 -0.073,-0.939 -0.111,-1.4205 0.65,-0.1455 0.88,0.1449 0.931,0.7056 0.082,0.9113 0.195,1.8197 0.289,2.7302 0.048,0.4656 0.282,0.8161 0.76,0.7858 0.528,-0.0335 0.743,-0.4148 0.683,-0.9375 z" fill="#ffffff" id="path160"></path></g><mask id="mask3_1170_479" maskUnits="userSpaceOnUse" x="0" y="0" width="210" height="125"><path d="M 0,4.66826e-6 H 210 V 125 H 0 Z" fill="#ffffff" id="path164"></path></mask><g mask="url(#mask3_1170_479)" id="g169"><path d="m 128.703,63.7891 c 0.052,-0.0776 0.083,-0.1767 0.094,-0.2984 z" fill="#ffffff" id="path167"></path></g><mask id="mask4_1170_479" maskUnits="userSpaceOnUse" x="0" y="0" width="210" height="125"><path d="M 0,4.66826e-6 H 210 V 125 H 0 Z" fill="#ffffff" id="path171"></path></mask><g mask="url(#mask4_1170_479)" id="g176"><path d="m 119.196,71.9736 h 4.256 l 10.523,-19.3557 h -6.466 l -6.205,10.9388 -6.5,-10.9388 h -6.632 l -6.03,10.6274 -4.8313,-8.1315 -3.2597,5.949 3.9967,6.0992 3.1533,4.8116 h 3.359 l 7.37,-12.6973 z" fill="#ffffff" id="path174"></path></g><mask id="mask5_1170_479" maskUnits="userSpaceOnUse" x="0" y="0" width="210" height="125"><path d="M 0,4.66826e-6 H 210 V 125 H 0 Z" fill="#ffffff" id="path178"></path></mask><g mask="url(#mask5_1170_479)" id="g183"><path d="M 90.986,64.2598 84.5238,52.6837 h -6.5552 l -10.107,19.2255 h 6.9801 l 6.5931,-13.019 6.4687,13.019 h 6.1759 L 104.165,52.6837 h -7.0085 z" fill="#ffffff" id="path181"></path></g><mask id="mask6_1170_479" maskUnits="userSpaceOnUse" x="0" y="0" width="210" height="125"><path d="M 0,4.66826e-6 H 210 V 125 H 0 Z" fill="#ffffff" id="path185"></path></mask><g mask="url(#mask6_1170_479)" id="g190"><path d="m 77.7811,83.331 v -1.095 c 0,-0.4316 -0.1129,-0.7494 -0.3384,-0.9537 -0.2252,-0.2043 -0.5734,-0.3063 -1.0443,-0.3063 -0.9118,0 -1.6983,0.5532 -2.36,1.6598 v 0.6952 z m -7.1695,3.2071 c -0.5627,0 -1.0526,-0.1044 -1.4689,-0.3131 -0.4167,-0.2084 -0.734,-0.5018 -0.953,-0.8796 -0.2187,-0.3784 -0.3284,-0.8123 -0.3284,-1.3017 0,-0.3361 0.0463,-0.6786 0.1384,-1.0275 0.0922,-0.3493 0.2187,-0.6629 0.3802,-0.9408 h 1.3329 c -0.1052,0.3184 -0.189,0.6524 -0.2516,1.0013 -0.0628,0.3493 -0.0939,0.6744 -0.0939,0.9758 0,0.4315 0.1236,0.7755 0.3704,1.0318 0.2469,0.2564 0.5728,0.3849 0.9776,0.3849 h 0.3011 c 0.5201,0 0.9029,-0.1238 1.148,-0.3716 0.2454,-0.2476 0.368,-0.5962 0.368,-1.0451 v -4.0587 h 1.506 v 1.5601 c 0.6155,-1.098 1.5288,-1.6469 2.7405,-1.6469 0.8294,0 1.4547,0.1917 1.8761,0.5757 0.4214,0.3839 0.6321,0.9772 0.6321,1.7794 V 84.4 h -5.2588 c -0.0492,0.7011 -0.3256,1.2329 -0.8294,1.5948 -0.5038,0.3622 -1.2179,0.5433 -2.1428,0.5433 z" fill="#ffffff" id="path188"></path></g><mask id="mask7_1170_479" maskUnits="userSpaceOnUse" x="0" y="0" width="210" height="125"><path d="M 0,4.66826e-6 H 210 V 125 H 0 Z" fill="#ffffff" id="path192"></path></mask><g mask="url(#mask7_1170_479)" id="g197"><path d="m 83.2735,83.3305 c 0.0329,0 0.0495,0.0118 0.0495,0.035 v 0.9907 c 0,0.0288 -0.0166,0.0432 -0.0495,0.0432 h -2.7701 v -6.7613 h 1.506 v 5.6924 z" fill="#ffffff" id="path195"></path></g><mask id="mask8_1170_479" maskUnits="userSpaceOnUse" x="0" y="0" width="210" height="125"><path d="M 0,4.66826e-6 H 210 V 125 H 0 Z" fill="#ffffff" id="path199"></path></mask><g mask="url(#mask8_1170_479)" id="g204"><path d="m 85.1053,86.625 c -0.2106,0 -0.3769,-0.057 -0.4987,-0.1714 -0.1218,-0.1146 -0.1828,-0.2702 -0.1828,-0.4674 0,-0.1999 0.0601,-0.3569 0.1804,-0.4713 0.1201,-0.1146 0.2872,-0.1717 0.5011,-0.1717 0.2039,0 0.366,0.0565 0.4863,0.1694 0.12,0.1132 0.1805,0.271 0.1805,0.4736 0,0.1972 -0.0619,0.3528 -0.1852,0.4674 -0.1236,0.1144 -0.2839,0.1714 -0.4816,0.1714 z m -1.9306,-2.2249 c -0.0329,0 -0.0495,-0.0144 -0.0495,-0.0432 v -0.9907 c 0,-0.0235 0.0166,-0.035 0.0495,-0.035 h 1.2639 V 79.994 h 1.5063 v 4.4061 z" fill="#ffffff" id="path202"></path></g><mask id="mask9_1170_479" maskUnits="userSpaceOnUse" x="0" y="0" width="210" height="125"><path d="M 0,4.66826e-6 H 210 V 125 H 0 Z" fill="#ffffff" id="path206"></path></mask><g mask="url(#mask9_1170_479)" id="g211"><path d="m 93.4191,79.9888 c -0.2074,0 -0.3719,-0.057 -0.4937,-0.1717 -0.1218,-0.1143 -0.1828,-0.2698 -0.1828,-0.4671 0,-0.1999 0.0601,-0.3569 0.1804,-0.4716 0.12,-0.1143 0.2857,-0.1713 0.4961,-0.1713 0.2107,0 0.3755,0.057 0.494,0.1713 0.1182,0.1147 0.1775,0.2717 0.1775,0.4716 0,0.1973 -0.0616,0.3528 -0.1849,0.4671 -0.1236,0.1147 -0.2857,0.1717 -0.4866,0.1717 z m -1.7181,0 c -0.2075,0 -0.3722,-0.057 -0.494,-0.1717 -0.1215,-0.1143 -0.1826,-0.2698 -0.1826,-0.4671 0,-0.1999 0.0602,-0.3569 0.1802,-0.4716 0.1203,-0.1143 0.2857,-0.1713 0.4964,-0.1713 0.2071,0 0.3704,0.0564 0.4886,0.1693 0.1185,0.1129 0.1778,0.271 0.1778,0.4736 0,0.2028 -0.0607,0.3601 -0.1825,0.4715 -0.1221,0.1117 -0.2833,0.1673 -0.4839,0.1673 z m -0.7358,4.4106 c -0.622,0 -1.1134,-0.1593 -1.474,-0.478 -0.3603,-0.3187 -0.5405,-0.7561 -0.5405,-1.3123 0,-0.2229 0.0296,-0.4613 0.0889,-0.7147 0.059,-0.2534 0.1381,-0.4686 0.2371,-0.6453 h 1.3332 c -0.1023,0.3851 -0.1532,0.7735 -0.1532,1.1645 0,0.2754 0.0871,0.4968 0.2616,0.665 0.1746,0.1678 0.4048,0.2519 0.6914,0.2519 h 3.2833 v -3.3373 h 1.511 v 3.3373 h 9.308 c 0.032,0 0.049,0.0115 0.049,0.0347 v 0.9907 c 0,0.0291 -0.017,0.0435 -0.049,0.0435 z" fill="#ffffff" id="path209"></path></g><mask id="mask10_1170_479" maskUnits="userSpaceOnUse" x="0" y="0" width="210" height="125"><path d="M 0,4.66826e-6 H 210 V 125 H 0 Z" fill="#ffffff" id="path213"></path></mask><g mask="url(#mask10_1170_479)" id="g218"><path d="m 105.413,84.3994 c -0.033,0 -0.049,-0.0144 -0.049,-0.0432 v -0.991 c 0,-0.0232 0.016,-0.0347 0.049,-0.0347 h 1.264 v -2.642 h 1.506 v 2.642 h 0.859 c 0.336,0 0.582,-0.082 0.738,-0.2455 0.157,-0.1637 0.235,-0.4251 0.235,-0.7843 v -1.6122 h 1.506 v 1.7165 c 0,0.1447 -0.01,0.2782 -0.03,0.3999 0.165,0.194 0.329,0.3301 0.494,0.4083 0.164,0.0782 0.377,0.1173 0.637,0.1173 h 0.627 v -3.3373 h 1.506 v 4.4062 h -2.104 c -0.569,0 -1.097,-0.2228 -1.585,-0.6691 -0.378,0.4463 -0.941,0.6691 -1.688,0.6691 z" fill="#ffffff" id="path216"></path></g><mask id="mask11_1170_479" maskUnits="userSpaceOnUse" x="0" y="0" width="210" height="125"><path d="M 0,4.66826e-6 H 210 V 125 H 0 Z" fill="#ffffff" id="path220"></path></mask><g mask="url(#mask11_1170_479)" id="g225"><path d="m 119.033,83.331 v -2.268 h -0.326 c -0.431,0 -0.768,0.107 -1.01,0.3213 -0.242,0.2143 -0.363,0.5171 -0.363,0.9081 0,0.3566 0.082,0.6185 0.247,0.7867 0.164,0.1679 0.416,0.2519 0.755,0.2519 z m -1.166,3.2071 c -0.457,0 -0.853,-0.0312 -1.187,-0.0935 -0.334,-0.0623 -0.656,-0.1746 -0.965,-0.3366 l 0.587,-0.9693 c 0.273,0.1247 0.532,0.2123 0.775,0.2629 0.244,0.0508 0.497,0.0761 0.761,0.0761 0.382,0 0.676,-0.092 0.883,-0.2761 0.208,-0.1837 0.312,-0.4365 0.312,-0.7581 V 84.4 h -1.003 c -0.721,0 -1.275,-0.1794 -1.664,-0.5389 -0.388,-0.359 -0.582,-0.8705 -0.582,-1.534 0,-0.4692 0.133,-0.8811 0.4,-1.2359 0.266,-0.3548 0.643,-0.6265 1.13,-0.8149 0.487,-0.1882 1.05,-0.2825 1.689,-0.2825 h 1.536 v 4.4323 c 0,0.675 -0.233,1.1956 -0.699,1.5622 -0.466,0.3666 -1.124,0.5498 -1.973,0.5498 z" fill="#ffffff" id="path223"></path></g><mask id="mask12_1170_479" maskUnits="userSpaceOnUse" x="0" y="0" width="210" height="125"><path d="M 0,4.66826e-6 H 210 V 125 H 0 Z" fill="#ffffff" id="path227"></path></mask><g mask="url(#mask12_1170_479)" id="g232"><path d="m 127.969,79.9888 c -0.211,0 -0.377,-0.057 -0.499,-0.1717 -0.122,-0.1143 -0.183,-0.2698 -0.183,-0.4671 0,-0.1999 0.06,-0.3569 0.181,-0.4716 0.12,-0.1143 0.287,-0.1713 0.501,-0.1713 0.204,0 0.366,0.0564 0.486,0.1693 0.12,0.1129 0.18,0.271 0.18,0.4736 0,0.1973 -0.062,0.3528 -0.185,0.4671 -0.123,0.1147 -0.284,0.1717 -0.481,0.1717 z m -0.864,-1.4337 c -0.162,0 -0.297,-0.045 -0.408,-0.135 -0.11,-0.0896 -0.165,-0.2258 -0.165,-0.4086 0,-0.1882 0.055,-0.3249 0.165,-0.4104 0.111,-0.0856 0.246,-0.1282 0.408,-0.1282 0.174,0 0.314,0.0476 0.419,0.1435 0.106,0.0952 0.158,0.2272 0.158,0.3951 0,0.1626 -0.051,0.2934 -0.155,0.3933 -0.104,0.1 -0.245,0.1503 -0.422,0.1503 z m -0.86,1.4337 c -0.207,0 -0.371,-0.057 -0.493,-0.1717 -0.122,-0.1143 -0.183,-0.2698 -0.183,-0.4671 0,-0.1999 0.06,-0.3569 0.18,-0.4716 0.12,-0.1143 0.286,-0.1713 0.496,-0.1713 0.211,0 0.376,0.057 0.494,0.1713 0.119,0.1147 0.178,0.2717 0.178,0.4716 0,0.1973 -0.062,0.3528 -0.185,0.4671 -0.124,0.1147 -0.286,0.1717 -0.487,0.1717 z m -0.686,4.4106 c -0.622,0 -1.113,-0.1593 -1.474,-0.478 -0.36,-0.3187 -0.54,-0.7561 -0.54,-1.3123 0,-0.2229 0.029,-0.4613 0.089,-0.7147 0.059,-0.2534 0.138,-0.4686 0.236,-0.6453 h 1.334 c -0.102,0.3851 -0.153,0.7735 -0.153,1.1645 0,0.2754 0.087,0.4968 0.261,0.665 0.175,0.1678 0.405,0.2519 0.692,0.2519 h 3.283 v -3.3373 h 1.511 v 4.4062 z" fill="#ffffff" id="path230"></path></g><mask id="mask13_1170_479" maskUnits="userSpaceOnUse" x="0" y="0" width="210" height="125"><path d="M 0,4.66826e-6 H 210 V 125 H 0 Z" fill="#ffffff" id="path234"></path></mask><g mask="url(#mask13_1170_479)" id="g239"><path d="m 132.557,86.5381 c -0.345,0 -0.662,-0.0365 -0.95,-0.1088 -0.288,-0.0723 -0.592,-0.2028 -0.911,-0.391 l 0.607,-0.8649 c 0.178,0.0985 0.335,0.1667 0.472,0.2043 0.136,0.0377 0.3,0.0565 0.491,0.0565 0.27,0 0.487,-0.0906 0.652,-0.2717 0.164,-0.181 0.247,-0.4092 0.247,-0.6843 v -4.4844 h 1.506 v 4.5496 c 0,0.6112 -0.192,1.0966 -0.576,1.4558 -0.383,0.3593 -0.896,0.5389 -1.538,0.5389 z" fill="#ffffff" id="path237"></path></g><mask id="mask14_1170_479" maskUnits="userSpaceOnUse" x="0" y="0" width="210" height="125"><path d="M 0,4.66826e-6 H 210 V 125 H 0 Z" fill="#ffffff" id="path241"></path></mask><g mask="url(#mask14_1170_479)" id="g246"><path d="m 138.948,83.331 v -2.268 h -0.326 c -0.431,0 -0.767,0.107 -1.009,0.3213 -0.242,0.2143 -0.363,0.5171 -0.363,0.9081 0,0.3566 0.082,0.6185 0.247,0.7867 0.164,0.1679 0.416,0.2519 0.755,0.2519 z m 2.77,0 c 0.033,0 0.05,0.0118 0.05,0.035 v 0.9907 c 0,0.0289 -0.017,0.0433 -0.05,0.0433 h -1.264 c 0,0.6779 -0.233,1.2035 -0.698,1.5775 -0.466,0.3736 -1.124,0.5606 -1.973,0.5606 -0.458,0 -0.854,-0.0312 -1.187,-0.0935 -0.334,-0.0623 -0.656,-0.1746 -0.966,-0.3366 l 0.588,-0.9693 c 0.273,0.1247 0.532,0.2123 0.775,0.2629 0.243,0.0508 0.497,0.0761 0.761,0.0761 0.381,0 0.676,-0.092 0.883,-0.2761 0.208,-0.1837 0.311,-0.4365 0.311,-0.7581 V 84.4 h -1.002 c -0.721,0 -1.275,-0.1794 -1.664,-0.5389 -0.388,-0.359 -0.583,-0.8705 -0.583,-1.534 0,-0.4692 0.134,-0.8811 0.4,-1.2359 0.267,-0.3548 0.644,-0.6265 1.131,-0.8149 0.487,-0.1882 1.05,-0.2825 1.689,-0.2825 h 1.535 v 3.3372 z" fill="#ffffff" id="path244"></path></g><mask id="mask15_1170_479" maskUnits="userSpaceOnUse" x="0" y="0" width="210" height="125"><path d="M 0,4.66826e-6 H 210 V 125 H 0 Z" fill="#ffffff" id="path248"></path></mask><g mask="url(#mask15_1170_479)" id="g253"><path d="m 145.505,79.2286 c -0.211,0 -0.377,-0.0574 -0.499,-0.1717 -0.122,-0.1144 -0.183,-0.2702 -0.183,-0.4671 0,-0.2 0.06,-0.3572 0.181,-0.4716 0.12,-0.1144 0.287,-0.1717 0.501,-0.1717 0.204,0 0.366,0.0568 0.486,0.1696 0.12,0.1129 0.18,0.2708 0.18,0.4737 0,0.1969 -0.061,0.3527 -0.185,0.4671 -0.123,0.1143 -0.284,0.1717 -0.481,0.1717 z m -3.885,5.1708 c -0.033,0 -0.05,-0.0141 -0.05,-0.0432 v -0.9907 c 0,-0.0232 0.017,-0.035 0.05,-0.035 h 3.144 v -3.3373 h 1.506 v 4.4062 z" fill="#ffffff" id="path251"></path></g></g><defs id="defs260"><clipPath id="clip0_1170_479"><rect width="210" height="125" fill="#ffffff" id="rect257" x="0" y="0"></rect></clipPath></defs></svg>