<?xml version="1.0" encoding="UTF-8"?>
<svg xmlns="http://www.w3.org/2000/svg" width="34" height="46" viewBox="0 0 34 46" fill="none">
  <path d="M18.1506 0.753906C18.5976 0.820439 19.045 0.884853 19.4915 0.953928C23.7579 1.61375 27.2844 3.61015 30.0511 6.89822C32.1136 9.34933 33.3531 12.189 33.8264 15.3678C34.278 18.402 33.8222 21.3189 32.7644 24.1603C31.1013 28.6277 28.5778 32.6252 25.8722 36.512C23.7918 39.5005 21.4326 42.2631 18.8556 44.8401C17.6217 46.0737 16.3372 46.0584 15.1207 44.7939C9.89586 39.3628 5.73347 33.1901 2.33938 26.4885C1.31767 24.4717 0.559564 22.3495 0.197489 20.1056C-0.18666 17.7248 0.000532851 15.3733 0.663985 13.0646C1.67678 9.53622 3.64294 6.63633 6.53021 4.36362C8.68823 2.66513 11.129 1.57772 13.8231 1.0603C14.4971 0.93062 15.1818 0.854765 15.8614 0.753906C16.6246 0.753906 17.3878 0.753906 18.1506 0.753906ZM27.2963 17.2417C27.2789 11.5551 22.6627 6.96136 16.979 6.97492C11.2839 6.98848 6.67877 11.5949 6.69151 17.2646C6.70424 22.9398 11.3395 27.5615 17.0028 27.5462C22.6835 27.531 27.3137 22.8957 27.2963 17.2417Z" fill="#EE712D"></path>
</svg>
